<?xml version="1.0" encoding="utf-8"?>
<!-- Generator: Adobe Illustrator 19.2.1, SVG Export Plug-In . SVG Version: 6.00 Build 0)  -->
<svg version="1.1" id="Layer_1" xmlns="http://www.w3.org/2000/svg" xmlns:xlink="http://www.w3.org/1999/xlink" x="0px" y="0px"
	 viewBox="0 0 192.1 224.7" style="enable-background:new 0 0 192.1 224.7;" xml:space="preserve">
<g>
	<path fill="#51C268" stroke="none" opacity=".3" d="M101.8,182.1c0.2,0.4,0.2,0.9,0,1.4c-0.3,0.5-0.8,0.8-1.4,0.8h-0.1H69.1H69c-0.6,0-1.1-0.3-1.4-0.8c-0.2-0.5-0.2-0.9,0-1.4
		c5.5-7.2,11.8-13.3,15.4-15.6c1-0.7,2.4-0.7,3.4,0C89.9,168.8,96.3,174.9,101.8,182.1 M100.4,191.9c7.2,0,11.6-8,7.8-14.1
		c0,0-8.8-11.5-16.6-17c-2-1.4-3.1-3.6-3.1-6v-37.7h-7.6v37.7c0,2.4-1.2,4.6-3.1,6c-7.9,5.5-16.6,17-16.6,17
		c-3.9,6.1,0.4,14.1,7.7,14.1h0.6v13.4h7.3v-13.4h15.9v13.4h7.1v-13.4H100.4"/>
</g>
<g>
	<path fill="#51C268" stroke="none" opacity=".3" d="M136.4,162.3c3.8-4.9,13.9-15.4,16-15.4c0.5,0,1.6,0.4,1.6,1.6v31.4c0,1.2-1.1,1.6-1.6,1.6c-2.3,0-12.2-10.6-16-15.4
		C135.6,165,135.6,163.4,136.4,162.3 M123.8,168L123.8,168c2.8,0,5.5,1.4,7.1,3.7c5.7,7.7,16.5,15.9,16.5,15.9
		c1.6,1,3.3,1.5,4.9,1.5c4.8,0,9.2-3.8,9.2-9.2v-0.6h14v-7.1h-13.9v-15.9h13.9v-7.1h-13.9v-0.6c0-5.4-4.4-9.2-9.2-9.2
		c-1.7,0-3.4,0.5-4.9,1.5c0,0-10.9,8.3-16.5,15.9c-1.7,2.3-4.3,3.7-7.1,3.7c-11.2,0-20.2-9.1-20.2-20.2v-22.9h-7.6v22.9
		C95.9,155.5,108.4,168,123.8,168"/>
</g>
<g>
	<path fill="#51C268" stroke="none" opacity=".3" d="M118.9,40.5c0,0-14,20.9-14.6,21.3v39.6c0,2.4-1.9,4.4-4.4,4.4s-4.4-2-4.4-4.4V62.2c-0.8-0.6-14.7-22.3-14.7-22.3
		c-3.1-5,0.5-11.5,6.4-11.4h0.5l0.1-8.7c0.1-1.5,1.4-2.8,3-2.8c1.6,0,2.9,1.3,2.9,2.9l-0.1,8.7l13,0.2l0.1-8.7
		c0-1.6,1.3-2.9,2.9-2.9s2.9,1.3,2.9,2.9l-0.1,8.7h0.5C118.7,29,122.2,35.6,118.9,40.5"/>
</g>
<g>
	<path fill="#51C268" stroke="none" opacity=".3" d="M89.4,100.3c0,2.4-1.8,4.5-4.3,4.5s-4.4-2-4.4-4.4V70.8c0-10-8.1-18.1-18.1-18.1l-22,14.7c-5,3.2-11.5-0.4-11.5-6.3v-0.5
		h-8.7c-1.6,0-2.9-1.3-2.9-2.9c0-1.6,1.3-2.9,2.9-2.9h8.7v-13h-8.7c-1.6,0-2.9-1.3-2.9-2.9c0-1.6,1.3-2.9,2.9-2.9h8.7v-0.5
		c0-5.9,6.5-9.5,11.5-6.3l22,14.7c14.8,0,26.8,12,26.8,26.8V100.3"/>
</g>
</svg>
