<?xml version="1.0" encoding="utf-8"?>
<!-- Generator: Adobe Illustrator 19.2.1, SVG Export Plug-In . SVG Version: 6.00 Build 0)  -->
<svg version="1.1" id="Layer_1" xmlns="http://www.w3.org/2000/svg" xmlns:xlink="http://www.w3.org/1999/xlink" x="0px" y="0px"
	 viewBox="0 0 164.1 144.6" style="enable-background:new 0 0 164.1 144.6;" xml:space="preserve">
<style type="text/css">
	.st0{fill:#FFFFFF;}
</style>
<g>
	<path class="st0" d="M34.1,6.9c0,0,32.8-17.8,60.9,3.7l-15.7,54c0,0-17.6-12.1-30.6-10.8c-13,1.3-30.2,7.6-30.2,7.6L34.1,6.9z"/>
	<path class="st0" d="M15.6,70.8c0,0,17.6-8.2,32.2-7.1c14.6,1,26.3,8.9,28.8,10.7l-15.9,54.5c0,0-17.6-11.5-30.2-10.4
		c-12.5,1-23.4,3-30.6,6.7L15.6,70.8z"/>
	<path class="st0" d="M84.9,79.7c0,0,16.7,10.9,27.7,10.6c10.8-0.3,18.3-1.1,32.9-6.9c0.1,0,0.4-0.3,0.3-0.2
		c-0.3,0.2-15.7,54-15.7,54s-17.3,8.1-32.9,7.3c-15.7-0.8-25.1-9.7-27.9-10.9L84.9,79.7z"/>
	<path class="st0" d="M103.3,16.3L87.5,69.9c0,0,12.8,12.5,30.8,11.5c18-1,27.8-6.7,30.2-7.5l15.6-54.1c0,0-20.7,8.7-34.3,7.1
		C116.2,25.3,107.8,19.5,103.3,16.3z"/>
</g>
</svg>
